<svg width="63" height="28" viewBox="0 0 63 28" fill="none" xmlns="http://www.w3.org/2000/svg">
<path d="M8.70631 10.9182C8.86763 11.1407 9.10482 11.3199 9.38885 11.434C8.65473 10.0488 11.373 9.51349 11.5119 10.996C11.5119 11.9854 9.88488 12.1217 9.0952 11.7356C8.30552 11.3496 8.11107 10.8922 7.65076 10.1655L6.29361 7.87526L2.84917 11.7356H0.154724V2.9411H0.599169V10.7268L7.55949 2.9411H10.7142L6.60314 7.54761C7.03171 8.22886 8.15473 10.3407 8.70631 10.9182Z" fill="#B3B3B3"/>
<path d="M19.7778 2.9411L24.8294 11.7356H24.3373L22.5357 8.59219H16.4246L14.5754 11.7356H11.746L16.9484 2.9411H19.7778ZM16.6389 8.23859H22.3175L19.5159 3.37256L16.6389 8.23859Z" fill="#B3B3B3"/>
<path d="M29.7381 2.76599C32.6191 2.76599 34.8016 3.98898 35.5238 6.28899L34.881 6.38956C33.627 5.25091 31.9762 5.00112 30.1191 4.97841C29.1645 4.95374 28.2092 5.00261 27.2659 5.12439C26.254 5.30281 24.7897 5.51043 24.6865 6.37658C24.6854 6.46637 24.714 6.55472 24.7692 6.63236C24.8243 6.71 24.9041 6.77405 25 6.81777C25.9167 7.16813 26.9206 7.11298 28.2659 7.14217H32.4326C33.0995 7.13069 33.7636 7.2175 34.3929 7.39845C35.746 7.82991 35.2381 9.34486 34.5714 10.1494C33.5794 11.3367 31.7937 11.9498 29.9365 11.9336C26.791 11.9336 24.8069 10.7593 23.9841 8.41059L24.6032 8.31327C26.1587 9.61087 28.004 9.79578 30.2222 9.74712C31.4365 9.72766 34.5873 9.52004 34.7619 8.32624C34.7606 8.19736 34.7086 8.07225 34.6135 7.96942C34.5185 7.8666 34.3854 7.79152 34.2341 7.75529C33.0794 7.41467 32.1389 7.51848 30.6072 7.4828H27.1825C24.6032 7.51848 23.3452 6.86967 24.7579 4.78377C25.75 3.4667 27.6111 2.73355 29.7381 2.76599Z" fill="#B3B3B3"/>
<path d="M46.7619 11.7356H46.3135V8.43972H36.9048V11.7356H36.4484V2.9411H36.9048V6.25H46.3214V2.9411H46.7699L46.7619 11.7356Z" fill="#B3B3B3"/>
<path d="M49.8413 1.06608C49.8234 1.32334 49.6858 1.56526 49.4567 1.74222C49.2276 1.91919 48.9243 2.01778 48.6091 2.01778C48.2939 2.01778 47.9907 1.91919 47.7616 1.74222C47.5325 1.56526 47.3949 1.32334 47.377 1.06608C47.3675 0.928992 47.3923 0.791762 47.4499 0.662788C47.5075 0.533815 47.5967 0.415814 47.7121 0.316011C47.8274 0.216207 47.9665 0.136702 48.1207 0.0823647C48.275 0.028027 48.4412 0 48.6091 0C48.7771 0 48.9433 0.028027 49.0975 0.0823647C49.2518 0.136702 49.3908 0.216207 49.5062 0.316011C49.6215 0.415814 49.7107 0.533815 49.7684 0.662788C49.826 0.791762 49.8508 0.928992 49.8413 1.06608ZM48.8095 2.94112V11.7357H48.3611V2.94112H48.8095Z" fill="#B3B3B3"/>
<path d="M57.9365 2.9411L63 11.7356H62.508L60.7143 8.60516H54.6032L52.75 11.7356H49.9167L55.1191 2.9411H57.9365ZM54.7976 8.23859H60.4762L57.6746 3.37256L54.7976 8.23859Z" fill="#B3B3B3"/>
<path d="M5.15873 26.8495V20.2447H0V18.042H10.7421V20.2447H5.58333V26.8495H5.15873Z" fill="#B3B3B3"/>
<path d="M22.373 26.7619C21.8294 27.2291 20.7857 27.0279 20.2698 26.7814C19.1587 26.2656 18.7183 24.8025 18.0873 23.9818L17.6071 23.1513H11.9603V26.8495H11.5079V18.042H11.9563H17.0357C20.4048 18.042 21.2183 18.7362 21.1587 21.4385C21.0357 22.8172 19.5992 23.2324 18.0992 23.1384L19.2103 25.0361C19.6071 25.6395 19.9246 26.2559 20.5952 26.5478C20.5007 26.3982 20.4586 26.2301 20.4738 26.0622C20.4889 25.8942 20.5607 25.733 20.6811 25.5964C20.8016 25.4597 20.9659 25.3531 21.156 25.2881C21.3461 25.2232 21.5544 25.2026 21.758 25.2286C21.9615 25.2546 22.1522 25.3262 22.309 25.4354C22.4658 25.5446 22.5826 25.6872 22.6463 25.8474C22.71 26.0075 22.7181 26.179 22.6699 26.3427C22.6217 26.5064 22.5189 26.656 22.373 26.7749V26.7619ZM20.1349 22.4409C20.9087 22.0192 20.9286 20.9 20.0635 20.5496C19.5462 20.3371 18.9713 20.2355 18.3929 20.2544H11.9603V22.7945H18.746C19.2439 22.8044 19.7319 22.6801 20.1349 22.4409Z" fill="#B3B3B3"/>
<path d="M31.6071 18.48C36.6587 20.8838 34.5238 27.0572 28.6905 27.0377C24.0317 27.3621 20.754 23.5017 23.0873 20.1409C23.6085 19.4369 24.3462 18.8569 25.2269 18.4584C26.1076 18.06 27.1007 17.8572 28.1071 17.8701C29.3213 17.7934 30.5368 18.0052 31.6071 18.48ZM31.4325 24.5139C34.8968 23.6185 34.9048 21.2698 31.4325 20.3875C30.586 20.1666 29.702 20.0571 28.8135 20.0631C27.6472 20.0094 26.4782 20.1191 25.3571 20.3875C21.877 21.2828 21.877 23.6315 25.3571 24.5139C26.4778 24.7839 27.6471 24.8936 28.8135 24.8383C29.702 24.8442 30.586 24.7347 31.4325 24.5139Z" fill="#B3B3B3"/>
<path d="M37.2182 16.167C37.2004 16.4242 37.0628 16.6662 36.8337 16.8431C36.6045 17.0201 36.3013 17.1187 35.9861 17.1187C35.6709 17.1187 35.3676 17.0201 35.1385 16.8431C34.9094 16.6662 34.7718 16.4242 34.7539 16.167C34.7444 16.0299 34.7692 15.8927 34.8268 15.7637C34.8845 15.6347 34.9737 15.5167 35.089 15.4169C35.2044 15.3171 35.3434 15.2376 35.4977 15.1833C35.6519 15.1289 35.8181 15.1009 35.9861 15.1009C36.154 15.1009 36.3202 15.1289 36.4745 15.1833C36.6287 15.2376 36.7678 15.3171 36.8831 15.4169C36.9985 15.5167 37.0877 15.6347 37.1453 15.7637C37.2029 15.8927 37.2277 16.0299 37.2182 16.167ZM36.2024 18.042V26.8495H35.7579V18.042H36.2024Z" fill="#B3B3B3"/>
<path d="M45.3294 18.042L50.3968 26.8495H49.9008L48.1032 23.7028H41.9921L40.1428 26.8495H37.3016L42.5 18.042H45.3294ZM42.1905 23.3395H47.869L45.0674 18.4734L42.1905 23.3395Z" fill="#B3B3B3"/>
<path d="M51.5159 26.8495H51.0714V18.042H53.7659L61.9047 25.779V18.042H62.3492V26.8495H59.6587L51.5159 19.1093V26.8495Z" fill="#B3B3B3"/>
</svg>
