<svg width="25" height="23" viewBox="0 0 25 23" fill="none" xmlns="http://www.w3.org/2000/svg">
<path fill-rule="evenodd" clip-rule="evenodd" d="M20 2C20 0.89543 20.8954 0 22 0H23C24.1046 0 25 0.89543 25 2C25 3.10457 24.1046 4 23 4H22C20.8954 4 20 3.10457 20 2ZM0 12C0 11.4477 0.447723 11 1 11H24C24.5523 11 25 11.4477 25 12C25 12.5523 24.5523 13 24 13H1C0.447723 13 0 12.5523 0 12ZM1 21C0.447723 21 0 21.4477 0 22C0 22.5523 0.447723 23 1 23H24C24.5523 23 25 22.5523 25 22C25 21.4477 24.5523 21 24 21H1Z" fill="#C4C4C4"/>
</svg>
